<?xml version="1.0" encoding="utf-8"?>
<!-- Generator: Adobe Illustrator 27.7.0, SVG Export Plug-In . SVG Version: 6.00 Build 0)  -->
<svg version="1.1" id="Layer_2_00000094592791931119096870000016769855923854890119_"
	 xmlns="http://www.w3.org/2000/svg" xmlns:xlink="http://www.w3.org/1999/xlink" x="0px" y="0px" viewBox="0 0 161.4 125.4"
	 style="enable-background:new 0 0 161.4 125.4;" xml:space="preserve">
<style type="text/css">
	.st0{enable-background:new    ;}
</style>
<g id="Layer_1-2">
	<g>
		<g class="st0">
			<path d="M5.6,76h2.6v17.6H4.4V79.9l-3,0.8l-0.8-3.1L5.6,76z"/>
		</g>
		<g class="st0">
			<path d="M12.2,76.1h12.6V79L17,93.6h-4.3l7.8-14.2h-8.2v-3.3H12.2z"/>
		</g>
		<g class="st0">
			<path d="M25.1,93.6v-4h4v4H25.1z"/>
			<path d="M34.8,81.7l-2.7-2.2c1.7-2.3,3.4-3.6,6.5-3.6c3.7,0,6,2.2,6,5.4c0,2.9-1.5,4.4-4.6,6.8l-2.8,2.2h7.6v3.3H31.9v-3l5.8-4.8
				c2.2-1.8,3-2.7,3-4.2s-1-2.3-2.3-2.3C37,79.3,36.1,80.1,34.8,81.7z"/>
			<path d="M54.3,93.9c-4,0-7-3.1-7-6.9v-0.1c0-3.8,2.9-7,7-7c2.5,0,4.1,0.8,5.3,2.2l-2.3,2.5c-0.8-0.9-1.7-1.5-3-1.5
				c-1.9,0-3.2,1.7-3.2,3.6l0,0c0,2,1.3,3.7,3.4,3.7c1.3,0,2.1-0.5,3.1-1.4l2.2,2.2C58.4,92.9,56.9,93.9,54.3,93.9z"/>
			<path d="M78.9,93.6v-7.5c0-1.8-0.8-2.7-2.2-2.7s-2.3,0.9-2.3,2.7v7.5h-3.8v-7.5c0-1.8-0.8-2.7-2.2-2.7c-1.4,0-2.3,0.9-2.3,2.7
				v7.5h-3.8V80.2H66v1.9c0.9-1.1,2-2.1,4-2.1c1.7,0,3.1,0.8,3.8,2.1c1.2-1.4,2.6-2.1,4.4-2.1c2.8,0,4.5,1.7,4.5,4.9v8.7H78.9z"/>
			<path d="M89.5,86.4c0,3.5,1.5,5.8,4.8,8.2l-1.7,2.5c-4.6-2.5-6.9-5.9-6.9-10.7s2.3-8.2,6.9-10.7l1.7,2.5
				C91,80.6,89.5,82.9,89.5,86.4z"/>
			<path d="M107.9,80.7c-1.2-0.9-2.1-1.4-3.6-1.4c-2.2,0-3.3,1.8-3.5,4c0.9-0.6,1.9-1.1,3.6-1.1c3.5,0,6.1,1.9,6.1,5.6
				c0,3.6-2.9,6.1-6.7,6.1c-2.3,0-3.8-0.6-5-1.9c-1.3-1.3-2.1-3.1-2.1-6.6c0-5.4,2.4-9.6,7.7-9.6c2.4,0,3.9,0.7,5.5,1.9L107.9,80.7z
				 M103.7,85.4c-1.9,0-3,1-3,2.5s1.1,2.6,3,2.6s3-1.1,3-2.6C106.7,86.5,105.6,85.4,103.7,85.4z"/>
		</g>
		<g class="st0">
			<path d="M113.5,93.6v-4h4v4H113.5z"/>
		</g>
		<g class="st0">
			<path d="M120.3,76.1h12.6V79L125,93.6h-4.3l7.8-14.2h-8.2V76.1z"/>
		</g>
		<g class="st0">
			<path d="M141.2,93.9c-2.5,0-4.3-0.8-5.7-2.1l2-2.9c1.3,1,2.3,1.5,3.8,1.5c2.2,0,3.3-1.6,3.5-4c-0.8,0.7-2,1.2-3.5,1.2
				c-3.8,0-6.2-2.1-6.2-5.7c0-3.5,2.7-6.1,6.7-6.1c2.3,0,3.7,0.6,5,1.9c1.2,1.2,2.1,3.1,2.1,6.6C148.9,90,146.2,93.9,141.2,93.9z
				 M141.9,79.1c-1.9,0-3,1.1-3,2.7s1.1,2.6,3,2.6s3-1.1,3-2.6C145,80.2,143.8,79.1,141.9,79.1z"/>
			<path d="M153,97.1l-1.7-2.5c3.4-2.3,4.8-4.6,4.8-8.2c0-3.5-1.4-5.8-4.8-8.2l1.7-2.5c4.6,2.5,6.9,5.9,6.9,10.7
				S157.6,94.6,153,97.1z"/>
		</g>
		<g class="st0">
			<path d="M36.3,112.7h-6.8v4h6.1v1.2h-6.1v4.9h-1.3v-11.2h8.1V112.7z"/>
			<path d="M40,117.7v5h-1.3v-11.2H40v5h6.5v-5h1.3v11.2h-1.3v-5H40z"/>
			<path d="M54.8,122.8h-3.9v-11.2h3.9c3.5,0,6,2.4,6,5.6S58.3,122.8,54.8,122.8z M54.8,112.7h-2.6v8.9h2.6c2.8,0,4.6-1.9,4.6-4.4
				S57.6,112.7,54.8,112.7z"/>
			<path d="M66.3,113.3h1.2v3.3h3.3v1.2h-3.3v3.3h-1.2v-3.3H63v-1.2h3.3V113.3z"/>
			<path d="M82.3,122.8h-3.9v-11.2h3.9c3.5,0,6,2.4,6,5.6S85.8,122.8,82.3,122.8z M82.3,112.7h-2.6v8.9h2.6c2.8,0,4.6-1.9,4.6-4.4
				S85.1,112.7,82.3,112.7z"/>
			<path d="M90.7,112.7v-1.4h1.4v1.4H90.7z M90.8,122.8v-8.3H92v8.3H90.8z"/>
			<path d="M97.7,122.9c-1.2,0-2.5-0.5-3.4-1.2l0.6-0.9c0.9,0.7,1.9,1.1,2.9,1.1s1.7-0.5,1.7-1.3l0,0c0-0.8-1-1.2-2.1-1.5
				c-1.3-0.4-2.7-0.8-2.7-2.3l0,0c0-1.4,1.2-2.4,2.8-2.4c1,0,2.1,0.4,3,0.9l-0.6,0.9c-0.8-0.5-1.6-0.8-2.4-0.8c-1,0-1.6,0.5-1.6,1.2
				l0,0c0,0.8,1,1.1,2.1,1.4c1.3,0.4,2.7,0.9,2.7,2.4l0,0C100.6,122,99.3,122.9,97.7,122.9z"/>
			<path d="M107.3,123c-1.5,0-2.5-0.8-3.2-1.8v4.1h-1.2v-10.8h1.2v1.7c0.7-1,1.6-1.8,3.2-1.8c2,0,4,1.6,4,4.3
				C111.2,121.4,109.3,123,107.3,123z M107.1,115.4c-1.5,0-3,1.3-3,3.2c0,1.9,1.5,3.2,3,3.2c1.6,0,2.9-1.2,2.9-3.2
				C110,116.7,108.6,115.4,107.1,115.4z"/>
			<path d="M113.6,122.8v-11.7h1.2v11.7H113.6z"/>
		</g>
		<g class="st0">
			<path d="M118.2,116.1l-0.4-1c0.9-0.4,1.8-0.7,3-0.7c2.3,0,3.5,1.2,3.5,3.3v5.1h-1.2v-1.2c-0.6,0.8-1.5,1.4-3,1.4
				s-3.1-0.9-3.1-2.6c0-1.8,1.4-2.7,3.5-2.7c1.1,0,1.8,0.1,2.5,0.4v-0.3c0-1.5-0.9-2.3-2.5-2.3C119.7,115.5,119,115.7,118.2,116.1z
				 M118.4,120.3c0,1.1,1,1.7,2.1,1.7c1.5,0,2.8-0.9,2.8-2.2V119c-0.6-0.2-1.4-0.4-2.4-0.4C119.2,118.6,118.4,119.3,118.4,120.3z"/>
		</g>
		<g class="st0">
			<path d="M130.7,123.1c-0.7,1.7-1.5,2.3-2.8,2.3c-0.7,0-1.2-0.1-1.8-0.4l0.4-1c0.4,0.2,0.8,0.3,1.3,0.3c0.7,0,1.2-0.4,1.7-1.6
				l-3.8-8.2h1.4l3,6.9l2.7-6.9h1.3L130.7,123.1z"/>
		</g>
		<g>
			<g>
				<path d="M87.9,27c-0.5,0-1.1-0.3-1.3-0.8c0-0.1-0.1-0.3-0.2-0.5c-0.1-0.4-0.3-1.1-0.8-1.4c-0.5-0.3-1.3-0.1-1.9,0.1
					c-0.8,0.2-1.6-0.2-1.9-1c-0.3-0.8,0.2-1.6,1-1.9c1.6-0.5,3.1-0.5,4.2,0.1c1.6,0.9,2.1,2.6,2.3,3.2l0,0.1c0.3,0.7,0,1.6-0.7,1.9
					C88.4,26.9,88.1,27,87.9,27z"/>
			</g>
			<g>
				<path d="M87.5,9.3h-23c-0.8,0-1.5-0.7-1.5-1.5s0.7-1.5,1.5-1.5h23C88.3,6.3,89,7,89,7.8S88.3,9.3,87.5,9.3z"/>
			</g>
			<g>
				<path d="M87.5,36.7c-0.1,0-0.2,0-0.4,0c-0.8-0.2-1.3-1-1.1-1.8c0.1-0.2,0.1-0.7,0.1-1v-4.6C86,25,87.6,24,88.3,23.8
					c1.2-0.5,4-1.1,5.6,2.6l0,0.1c0.4,0.7,0.2,1.5-0.5,2c-0.7,0.5-1.6,0.3-2.1-0.4c-0.1-0.1-0.1-0.2-0.2-0.5c-0.5-1.1-0.8-1.3-1.6-1
					c-0.1,0.2-0.4,0.8-0.4,2.6l0,4.6c0,0.6,0,1.2-0.1,1.8C88.8,36.2,88.2,36.7,87.5,36.7z M89.1,26.7C89.1,26.7,89.1,26.7,89.1,26.7
					C89.1,26.7,89.1,26.7,89.1,26.7z M89.1,26.7C89.1,26.7,89.1,26.7,89.1,26.7C89.1,26.7,89.1,26.7,89.1,26.7z M89.2,26.7
					C89.2,26.7,89.1,26.7,89.2,26.7C89.1,26.7,89.2,26.7,89.2,26.7z M89.2,26.7C89.2,26.7,89.2,26.7,89.2,26.7
					C89.2,26.7,89.2,26.7,89.2,26.7z M89.2,26.7L89.2,26.7L89.2,26.7z"/>
			</g>
			<g>
				<path d="M77.5,39.2c-0.4,0-0.8-0.1-1.1-0.4c-0.6-0.6-0.6-1.5,0-2.1c0,0,0.1-0.2,0.1-0.4V16.7c0-2.1,1.7-3.8,3.8-3.8
					c2.3,0,4,1.8,4,4.2c0,0.4,0,2.9-0.1,5.1c0,2,0,3.8,0,4c0.1,1.8,0.1,3.6,0.1,5.4c0,1.1,0,2.4-0.1,3.5c-0.1,0.8-0.8,1.4-1.6,1.4
					c-0.8-0.1-1.4-0.8-1.4-1.6c0.1-1,0.1-2.2,0.1-3.3c0-1.7,0-3.6-0.1-5.3c0-0.4,0-2.2,0-4.2c0-2.3,0.1-4.7,0.1-5.1
					c0-0.9-0.5-1.2-1-1.2c-0.4,0-0.8,0.3-0.8,0.8v19.5c0,0.7-0.1,1.7-0.9,2.6C78.3,39.1,77.9,39.2,77.5,39.2z"/>
			</g>
			<g>
				<path d="M97,49.3c-0.8,0-1.5-0.7-1.5-1.5v-19c0-0.4-0.3-0.8-0.7-0.8c-0.7,0-1,0.5-1,0.9c-0.1,1.8-0.1,3.7,0,5.5
					c0,0.8-0.6,1.5-1.4,1.6c-0.8,0-1.5-0.6-1.6-1.4c-0.1-1.9-0.1-3.9,0-5.9c0-1.1,1-3.7,4-3.7c2,0,3.7,1.7,3.7,3.8v19
					C98.5,48.6,97.8,49.3,97,49.3z"/>
			</g>
			<g>
				<path d="M76.7,51.2c-1.8,0-4.2-3.3-4.5-3.9l-0.8-2.2c-1-2.7-2-5.4-3-8.2c-0.1-0.3-0.2-0.5-0.3-0.8c-0.3-0.8-0.6-1.7-0.5-2.8
					c0.3-2.1,1.8-2.5,2.4-2.6c1.6-0.3,2.8,0.3,3.6,0.8c0,0,0.1,0,0.1,0.1c1.3,1,2.4,2.2,3.4,3.8l0.2,0.2c0.3,0.4,0.4,0.6,0.6,0.7
					c0.8,0.3,1.1,1.2,0.8,2c-0.3,0.8-1.2,1.1-2,0.8c-1-0.4-1.5-1.2-1.9-1.8L74.7,37c-0.8-1.3-1.7-2.3-2.6-3
					c-0.5-0.3-0.9-0.4-1.4-0.4c0,0,0,0,0,0.1c0,0.3,0.1,0.8,0.4,1.4c0.1,0.3,0.2,0.6,0.3,0.9c0.9,2.7,1.9,5.3,2.9,8.1l0.8,2.2
					c0.3,0.4,1.4,1.6,1.9,2c0.6,0.1,1,0.6,1.1,1.2c0.2,0.8-0.4,1.6-1.2,1.8C76.9,51.2,76.8,51.2,76.7,51.2z M75.1,46.3L75.1,46.3
					C75.1,46.3,75.1,46.3,75.1,46.3C75.1,46.3,75.1,46.3,75.1,46.3z"/>
			</g>
			<g>
				<path d="M68.8,43.6h-1.2c-1.5,0-2.9-0.6-3.8-1.6c-0.8-0.9-1.1-2.1-0.9-3.3c0-0.3,0-0.7,0-1.1c0-0.3,0-0.6,0-0.9V4.5
					c0-2.5,1.5-3.6,2.8-4.1C66.3,0.1,67.1,0,67.9,0H85c0.1,0,0.1,0,0.2,0c1.3,0.2,2.5,0.8,3.3,1.8c0.7,0.9,1,1.9,0.8,3
					c-0.1,0.6,0,5.8,0,9.2c0,1.8,0,3.6,0,4.8c0,0.8-0.7,1.5-1.5,1.5s-1.5-0.7-1.5-1.5c0-1.2,0-2.9,0-4.7c0-5.5,0-9,0-9.6
					c0-0.3-0.1-0.6-0.2-0.8c-0.3-0.3-0.7-0.6-1.2-0.7h-17c-0.4,0-0.8,0.1-1.1,0.2c-0.7,0.3-0.9,0.5-0.9,1.3v32.2c0,0.3,0,0.5,0,0.7
					c0,0.5,0,1.1,0,1.7c-0.1,0.4,0,0.6,0.2,0.9c0.3,0.4,0.9,0.6,1.5,0.6h1.2c0.8,0,1.5,0.7,1.5,1.5S69.6,43.6,68.8,43.6z"/>
			</g>
		</g>
	</g>
</g>
</svg>
