<?xml version="1.0" encoding="utf-8"?>
<!-- Generator: Adobe Illustrator 27.7.0, SVG Export Plug-In . SVG Version: 6.00 Build 0)  -->
<svg version="1.1" id="Layer_2_00000057125080158671909030000015286379052842375865_"
	 xmlns="http://www.w3.org/2000/svg" xmlns:xlink="http://www.w3.org/1999/xlink" x="0px" y="0px" viewBox="0 0 51.2 121.7"
	 style="enable-background:new 0 0 51.2 121.7;" xml:space="preserve">
<style type="text/css">
	.st0{enable-background:new    ;}
</style>
<g id="Layer_1-2">
	<g>
		<g>
			<path d="M46.8,22c-0.2,0.4-0.3,0.9-0.7,1.1c-0.3,0.3-0.8,0.5-1.3,0.5c-1.4,0.1-2.7,0-4.1,0c-1.1,0-1.9-0.9-1.9-2
				c0-1.1,0.8-1.9,1.9-2c1.3,0,2.6,0,3.9,0c1,0,1.7,0.5,2,1.5c0,0.1,0,0.1,0.1,0.2C46.8,21.7,46.8,21.9,46.8,22L46.8,22z"/>
			<path d="M24.8,43.6c-0.1,0-0.2-0.1-0.3-0.1c-0.8-0.3-1.3-1-1.4-1.8c0-1.4,0-2.7,0-4.1c0-1.1,0.9-1.9,2-1.9c1.1,0,1.9,0.8,2,1.9
				c0,1.3,0,2.6,0,3.9c0,1-0.5,1.7-1.5,2c-0.1,0-0.1,0.1-0.2,0.1L24.8,43.6L24.8,43.6z"/>
			<path d="M25.3,31.7c-5.3,0.1-10-4-10.1-9.7c-0.1-5.5,4.1-9.9,9.6-10.1c5.4-0.2,10,4.1,10.2,9.6C35.2,26.9,30.8,31.4,25.3,31.7z
				 M25.1,27.7c3.3,0,5.9-2.7,5.9-5.9c0-3.3-2.7-5.9-5.9-5.9c-3.3,0-5.9,2.7-5.9,5.9C19.1,25.1,21.8,27.7,25.1,27.7z"/>
			<path d="M9.1,8c0.1-1,0.4-1.7,1.1-2c0.7-0.3,1.5-0.3,2.1,0.2c1.1,1,2.1,2,3.1,3.1c0.7,0.7,0.6,1.9-0.1,2.6
				c-0.7,0.7-1.9,0.8-2.6,0.1c-1.1-1-2.1-2-3.1-3.1C9.3,8.7,9.2,8.3,9.1,8L9.1,8z"/>
			<path d="M38.8,5.8c1,0.1,1.6,0.4,2,1.1c0.3,0.7,0.3,1.5-0.2,2.1c-1,1.1-2,2.1-3.1,3.1c-0.7,0.7-1.9,0.6-2.6-0.2
				c-0.7-0.7-0.8-1.9-0.1-2.6c1-1.1,2-2.1,3.1-3.1C38.1,6,38.6,5.9,38.8,5.8L38.8,5.8z"/>
			<path d="M41,35.5c0,1.1-0.4,1.7-1.1,2s-1.5,0.3-2.1-0.2c-1-1-2.1-2-3-3c-0.7-0.8-0.6-1.9,0.1-2.6c0.7-0.7,1.9-0.8,2.7-0.1
				c1,1,2,2,3,3C40.8,34.8,40.9,35.3,41,35.5L41,35.5z"/>
			<path d="M11.3,37.8c-1,0-1.7-0.4-2-1.1S9,35.2,9.5,34.6c1-1.1,2-2.1,3.1-3.1c0.7-0.7,1.9-0.6,2.6,0.1c0.7,0.7,0.8,1.9,0.2,2.6
				c-1,1.1-2,2.1-3.1,3.1C12,37.6,11.5,37.7,11.3,37.8z"/>
			<path d="M23.1,4c0-0.7,0-1.3,0-2c0-1.1,0.9-2,2-2c1.1,0,1.9,0.9,2,2c0,1.3,0,2.7,0,4c0,1.1-0.9,1.9-2,1.9c-1.1,0-1.9-0.8-2-1.9
				C23.1,5.3,23.1,4.6,23.1,4L23.1,4z"/>
			<path d="M7.2,23.8c-0.7,0-1.3,0-2,0c-1.2,0-2-0.9-2-2c0-1.1,0.9-1.9,2-2c1.3,0,2.6,0,3.9,0c1.1,0,2,0.9,2,2c0,1.1-0.9,2-2,2
				C8.5,23.8,7.9,23.8,7.2,23.8L7.2,23.8z"/>
		</g>
		<g class="st0">
			<path d="M13.6,76.1v10.7H16V90h-2.3v3.8H9.9V90H1.4l-0.6-2.7l9.6-11.1H13.6z M9.9,81.4l-4.6,5.4h4.6V81.4z"/>
			<path d="M20,76.2h10.7v3.4h-7.4l-0.2,3c0.7-0.2,1.3-0.3,2.3-0.3c3.4,0,6.1,1.6,6.1,5.6c0,3.7-2.6,6.1-6.6,6.1
				c-2.8,0-4.8-1-6.5-2.6l2.3-2.8c1.3,1.2,2.6,1.9,4.2,1.9c1.8,0,2.9-0.9,2.9-2.4c0-1.5-1.2-2.4-3.1-2.4c-1.1,0-2.1,0.3-2.9,0.6
				l-2.2-1.5L20,76.2z"/>
			<path d="M42.1,94c-4.7,0-7.7-3.9-7.7-9s3.1-9.1,7.8-9.1s7.7,3.9,7.7,9C49.9,90.1,46.7,94,42.1,94z M42.1,79.4
				c-2.3,0-3.8,2.3-3.8,5.5c0,3.2,1.5,5.6,3.8,5.6c2.3,0,3.8-2.3,3.8-5.5S44.4,79.4,42.1,79.4z"/>
		</g>
		<g class="st0">
			<path d="M14,119h-1.2v-8.3H14v1.4c0.5-0.9,1.4-1.6,2.8-1.6c2,0,3.2,1.3,3.2,3.3v5.1h-1.2v-4.8c0-1.5-0.8-2.5-2.3-2.5
				c-1.4,0-2.5,1-2.5,2.6V119z"/>
			<path d="M22.6,108.9v-1.4H24v1.4H22.6z M22.7,119v-8.3h1.2v8.3H22.7z"/>
			<path d="M28.5,116.7c0,1,0.6,1.4,1.4,1.4c0.4,0,0.8-0.1,1.2-0.3v1.1c-0.4,0.2-0.9,0.4-1.5,0.4c-1.3,0-2.3-0.7-2.3-2.3v-5h-1.2
				v-1.1h1.2v-2.5h1.2v2.5h2.6v1.1h-2.6V116.7z"/>
			<path d="M36,119.2c-1.2,0-2.5-0.5-3.4-1.2l0.6-0.9c0.9,0.7,1.9,1.1,2.9,1.1c1,0,1.7-0.5,1.7-1.3v0c0-0.8-1-1.2-2.1-1.5
				c-1.3-0.4-2.7-0.8-2.7-2.3v0c0-1.4,1.2-2.4,2.8-2.4c1,0,2.1,0.4,3,0.9l-0.6,0.9c-0.8-0.5-1.6-0.8-2.4-0.8c-1,0-1.6,0.5-1.6,1.2v0
				c0,0.8,1,1.1,2.1,1.4c1.3,0.4,2.7,0.9,2.7,2.4v0C39,118.3,37.7,119.2,36,119.2z"/>
		</g>
	</g>
</g>
</svg>
