<?xml version="1.0" encoding="utf-8"?>
<!-- Generator: Adobe Illustrator 27.7.0, SVG Export Plug-In . SVG Version: 6.00 Build 0)  -->
<svg version="1.1" id="Layer_2_00000180366958050070917690000000229987744629879743_"
	 xmlns="http://www.w3.org/2000/svg" xmlns:xlink="http://www.w3.org/1999/xlink" x="0px" y="0px" viewBox="0 0 115.1 121.9"
	 style="enable-background:new 0 0 115.1 121.9;" xml:space="preserve">
<style type="text/css">
	.st0{enable-background:new    ;}
	.st1{fill:#FFFFFF;}
</style>
<g id="Layer_1-2">
	<g>
		<g class="st0">
			<path d="M31.1,90.4c-2.5,0-4.3-0.8-5.7-2.1l2-2.9c1.3,1,2.3,1.5,3.8,1.5c2.1,0,3.3-1.6,3.5-4c-0.8,0.7-2,1.2-3.5,1.2
				c-3.8,0-6.2-2.1-6.2-5.7c0-3.5,2.7-6.1,6.7-6.1c2.3,0,3.7,0.6,5,1.9c1.2,1.2,2.1,3.1,2.1,6.6C38.8,86.5,36.1,90.4,31.1,90.4z
				 M31.8,75.6c-1.9,0-3,1.1-3,2.7c0,1.6,1.1,2.6,3,2.6s3-1.1,3-2.6C34.9,76.7,33.7,75.6,31.8,75.6z"/>
			<path d="M49.2,90.4c-4.7,0-7.7-3.9-7.7-9s3.1-9.1,7.8-9.1s7.7,3.9,7.7,9C57,86.4,53.9,90.4,49.2,90.4z M49.2,75.8
				c-2.3,0-3.8,2.3-3.8,5.5c0,3.2,1.5,5.6,3.8,5.6c2.3,0,3.8-2.3,3.8-5.5S51.6,75.8,49.2,75.8z"/>
			<path d="M71.4,90.1v-7h-7.1v7h-3.8V72.6h3.8v6.9h7.1v-6.9h3.8v17.5H71.4z"/>
			<path d="M78.6,90.1v-2.7l6.9-7.6h-6.7v-3.1h11.4v2.7L83.3,87h6.9v3.1H78.6z"/>
		</g>
		<g class="st0">
			<path d="M12,119.3h-1.4l-1.3-3H3.2l-1.3,3H0.6L5.7,108h1.2L12,119.3z M6.3,109.5l-2.6,5.7h5.1L6.3,109.5z"/>
		</g>
		<g class="st0">
			<path d="M20.3,119.3v-1.7c-0.7,1-1.6,1.8-3.2,1.8c-2,0-4-1.6-4-4.3c0-2.7,2-4.3,4-4.3c1.5,0,2.5,0.8,3.2,1.8v-5h1.2v11.7H20.3z
				 M17.3,112c-1.6,0-2.9,1.2-2.9,3.2c0,2,1.3,3.2,2.9,3.2c1.5,0,3-1.3,3-3.2C20.3,113.2,18.9,112,17.3,112z"/>
			<path d="M24.7,112.6l-0.4-1c0.9-0.4,1.8-0.7,3-0.7c2.3,0,3.5,1.2,3.5,3.3v5.1h-1.2v-1.2c-0.6,0.8-1.5,1.4-3,1.4
				c-1.5,0-3.1-0.9-3.1-2.6c0-1.8,1.4-2.7,3.5-2.7c1.1,0,1.8,0.1,2.5,0.4v-0.3c0-1.5-0.9-2.3-2.5-2.3
				C26.3,112,25.5,112.3,24.7,112.6z M24.9,116.8c0,1.1,1,1.7,2.1,1.7c1.5,0,2.8-0.9,2.8-2.2v-0.8c-0.6-0.2-1.4-0.4-2.4-0.4
				C25.7,115.1,24.9,115.8,24.9,116.8z"/>
			<path d="M37.9,119.5c-1.5,0-2.5-0.8-3.2-1.8v4.1h-1.2V111h1.2v1.7c0.7-1,1.6-1.8,3.2-1.8c2,0,4,1.6,4,4.3
				C41.9,117.9,39.9,119.5,37.9,119.5z M37.7,112c-1.5,0-3,1.3-3,3.2c0,1.9,1.5,3.2,3,3.2c1.6,0,2.9-1.2,2.9-3.2
				C40.6,113.2,39.3,112,37.7,112z"/>
			<path d="M45.8,117c0,1,0.6,1.4,1.4,1.4c0.4,0,0.8-0.1,1.2-0.3v1.1c-0.4,0.2-0.9,0.4-1.5,0.4c-1.3,0-2.3-0.7-2.3-2.3v-5h-1.2V111
				h1.2v-2.5h1.2v2.5h2.6v1.1h-2.6V117z"/>
			<path d="M50.6,109.2v-1.4H52v1.4H50.6z M50.7,119.3V111h1.2v8.3H50.7z"/>
		</g>
		<g class="st0">
			<path d="M60.9,111h1.3l-3.6,8.3h-1.1L54,111h1.4l2.8,6.9L60.9,111z"/>
		</g>
		<g class="st0">
			<path d="M67.4,118.4c1.1,0,1.9-0.5,2.6-1.2l0.8,0.7c-0.8,0.9-1.8,1.6-3.4,1.6c-2.3,0-4.1-1.7-4.1-4.3c0-2.4,1.7-4.3,4-4.3
				c2.4,0,3.9,2,3.9,4.4c0,0.1,0,0.2,0,0.4h-6.6C64.6,117.4,65.9,118.4,67.4,118.4z M69.8,114.7c-0.1-1.5-1-2.8-2.6-2.8
				c-1.4,0-2.5,1.2-2.7,2.8H69.8z"/>
		</g>
		<g class="st0">
			<path d="M82.2,113.1c2.5,0.5,3.7,1.5,3.7,3.2c0,1.9-1.6,3.2-3.8,3.2c-1.8,0-3.2-0.6-4.6-1.8l0.8-0.9c1.2,1.1,2.3,1.6,3.8,1.6
				c1.5,0,2.5-0.8,2.5-1.9c0-1.1-0.6-1.6-2.9-2.1c-2.6-0.6-3.8-1.4-3.8-3.2c0-1.8,1.6-3.1,3.7-3.1c1.6,0,2.8,0.5,3.9,1.4l-0.7,1
				c-1-0.8-2.1-1.2-3.2-1.2c-1.5,0-2.4,0.8-2.4,1.8C79.2,112,79.7,112.6,82.2,113.1z"/>
		</g>
		<g class="st0">
			<path d="M92,119.6c-0.7,1.7-1.5,2.3-2.8,2.3c-0.7,0-1.2-0.1-1.8-0.4l0.4-1c0.4,0.2,0.8,0.3,1.3,0.3c0.7,0,1.2-0.4,1.7-1.6
				l-3.8-8.2h1.4l3,6.9l2.7-6.9h1.3L92,119.6z"/>
			<path d="M98.7,119.3h-1.2V111h1.2v1.4c0.5-0.9,1.4-1.6,2.8-1.6c2,0,3.2,1.3,3.2,3.3v5.1h-1.2v-4.8c0-1.5-0.8-2.5-2.3-2.5
				c-1.4,0-2.5,1-2.5,2.6V119.3z"/>
			<path d="M111,119.5c-2.4,0-4.2-2-4.2-4.3c0-2.4,1.8-4.3,4.2-4.3c1.6,0,2.5,0.7,3.3,1.5l-0.8,0.9c-0.7-0.7-1.4-1.2-2.5-1.2
				c-1.7,0-3,1.4-3,3.2c0,1.8,1.3,3.2,3,3.2c1.1,0,1.9-0.5,2.5-1.2l0.8,0.7C113.6,118.8,112.6,119.5,111,119.5z"/>
		</g>
		<g>
			<g>
				<rect x="40.5" y="1.5" class="st1" width="45.6" height="23.5"/>
				<path d="M86,26.5H40.5c-0.8,0-1.5-0.7-1.5-1.5V1.5C39,0.7,39.6,0,40.5,0H86c0.8,0,1.5,0.7,1.5,1.5V25
					C87.5,25.8,86.9,26.5,86,26.5z M42,23.5h42.6V3H42V23.5z"/>
			</g>
			<g>
				<rect x="35.1" y="6.3" class="st1" width="45.6" height="23.5"/>
				<path d="M80.7,31.3H35.1c-0.8,0-1.5-0.7-1.5-1.5V6.3c0-0.8,0.7-1.5,1.5-1.5h45.6c0.8,0,1.5,0.7,1.5,1.5v23.5
					C82.2,30.7,81.5,31.3,80.7,31.3z M36.6,28.3h42.6V7.8H36.6V28.3z"/>
			</g>
			<g>
				<rect x="29" y="11.4" class="st1" width="45.6" height="23.5"/>
				<path d="M74.6,36.4H29c-0.8,0-1.5-0.7-1.5-1.5V11.4c0-0.8,0.7-1.5,1.5-1.5h45.6c0.8,0,1.5,0.7,1.5,1.5v23.5
					C76.1,35.7,75.4,36.4,74.6,36.4z M30.5,33.4h42.6V12.9H30.5V33.4z"/>
			</g>
		</g>
	</g>
</g>
</svg>
