<?xml version="1.0" encoding="utf-8"?>
<!-- Generator: Adobe Illustrator 27.7.0, SVG Export Plug-In . SVG Version: 6.00 Build 0)  -->
<svg version="1.1" id="Layer_2_00000094592791931119096870000016769855923854890119_"
	 xmlns="http://www.w3.org/2000/svg" xmlns:xlink="http://www.w3.org/1999/xlink" x="0px" y="0px" viewBox="0 0 38.6 54"
	 style="enable-background:new 0 0 38.6 54;" xml:space="preserve">
<g id="Layer_1-2">
	<g>
		<g>
			<g>
				<path d="M26.5,28.4c-0.5,0-1.1-0.3-1.3-0.8c0-0.1-0.1-0.3-0.2-0.5c-0.1-0.4-0.3-1.1-0.8-1.4s-1.3-0.1-1.9,0.1
					c-0.8,0.2-1.6-0.2-1.9-1s0.2-1.6,1-1.9c1.6-0.5,3.1-0.5,4.2,0.1c1.6,0.9,2.1,2.6,2.3,3.2v0.1c0.3,0.7,0,1.6-0.7,1.9
					C27,28.2,26.7,28.4,26.5,28.4z"/>
			</g>
			<g>
				<path d="M26.1,10.7h-23c-0.8,0-1.5-0.7-1.5-1.5s0.7-1.5,1.5-1.5h23c0.8,0,1.5,0.7,1.5,1.5S26.9,10.7,26.1,10.7z"/>
			</g>
			<g>
				<path d="M26.1,38.1c-0.1,0-0.2,0-0.4,0c-0.8-0.2-1.3-1-1.1-1.8c0.1-0.2,0.1-0.7,0.1-1v-4.6c-0.1-4.3,1.5-5.3,2.2-5.5
					c1.2-0.5,4-1.1,5.6,2.6v0.1c0.4,0.7,0.2,1.5-0.5,2c-0.7,0.5-1.6,0.3-2.1-0.4c-0.1-0.1-0.1-0.2-0.2-0.5c-0.5-1.1-0.8-1.3-1.6-1
					c-0.1,0.2-0.4,0.8-0.4,2.6v4.6c0,0.6,0,1.2-0.1,1.8C27.4,37.6,26.8,38.1,26.1,38.1z M27.7,28.1L27.7,28.1L27.7,28.1z M27.7,28.1
					L27.7,28.1L27.7,28.1z M27.8,28.1C27.8,28.1,27.7,28.1,27.8,28.1C27.7,28.1,27.8,28.1,27.8,28.1z M27.8,28.1L27.8,28.1
					L27.8,28.1z M27.8,28.1L27.8,28.1L27.8,28.1z"/>
			</g>
			<g>
				<path d="M16.1,40.6c-0.4,0-0.8-0.1-1.1-0.4c-0.6-0.6-0.6-1.5,0-2.1c0,0,0.1-0.2,0.1-0.4V18.1c0-2.1,1.7-3.8,3.8-3.8
					c2.3,0,4,1.8,4,4.2c0,0.4,0,2.9-0.1,5.1c0,2,0,3.8,0,4c0.1,1.8,0.1,3.6,0.1,5.4c0,1.1,0,2.4-0.1,3.5c-0.1,0.8-0.8,1.4-1.6,1.4
					c-0.8-0.1-1.4-0.8-1.4-1.6c0.1-1,0.1-2.2,0.1-3.3c0-1.7,0-3.6-0.1-5.3c0-0.4,0-2.2,0-4.2c0-2.3,0.1-4.7,0.1-5.1
					c0-0.9-0.5-1.2-1-1.2c-0.4,0-0.8,0.3-0.8,0.8v19.5c0,0.7-0.1,1.7-0.9,2.6C16.9,40.4,16.5,40.6,16.1,40.6z"/>
			</g>
			<g>
				<path d="M35.6,50.7c-0.8,0-1.5-0.7-1.5-1.5v-19c0-0.4-0.3-0.8-0.7-0.8c-0.7,0-1,0.5-1,0.9c-0.1,1.8-0.1,3.7,0,5.5
					c0,0.8-0.6,1.5-1.4,1.6c-0.8,0-1.5-0.6-1.6-1.4c-0.1-1.9-0.1-3.9,0-5.9c0-1.1,1-3.7,4-3.7c2,0,3.7,1.7,3.7,3.8v19
					C37.1,49.9,36.4,50.7,35.6,50.7z"/>
			</g>
			<g>
				<path d="M15.3,52.6c-1.8,0-4.2-3.3-4.5-3.9L10,46.4c-1-2.7-2-5.4-3-8.2c-0.1-0.3-0.2-0.5-0.3-0.8c-0.3-0.8-0.6-1.7-0.5-2.8
					C6.5,32.5,8,32.2,8.6,32c1.6-0.3,2.8,0.3,3.6,0.8c0,0,0.1,0,0.1,0.1c1.3,1,2.4,2.2,3.4,3.8l0.2,0.2c0.3,0.4,0.4,0.6,0.6,0.7
					c0.8,0.3,1.1,1.2,0.8,2c-0.3,0.8-1.2,1.1-2,0.8c-1-0.4-1.5-1.2-1.9-1.8l-0.1-0.3c-0.8-1.3-1.7-2.3-2.6-3
					c-0.5-0.3-0.9-0.4-1.4-0.4c0,0,0,0,0,0.1c0,0.3,0.1,0.8,0.4,1.4c0.1,0.3,0.2,0.6,0.3,0.9c0.9,2.7,1.9,5.3,2.9,8.1l0.8,2.2
					c0.3,0.4,1.4,1.6,1.9,2c0.6,0.1,1,0.6,1.1,1.2c0.2,0.8-0.4,1.6-1.2,1.8C15.5,52.6,15.4,52.6,15.3,52.6z M13.7,47.7L13.7,47.7
					L13.7,47.7L13.7,47.7z"/>
			</g>
			<g>
				<path d="M7.4,44.9H6.2c-1.5,0-2.9-0.6-3.8-1.6c-0.8-0.9-1.1-2.1-0.9-3.3c0-0.3,0-0.7,0-1.1c0-0.3,0-0.6,0-0.9V5.9
					c0-2.5,1.5-3.6,2.8-4.1c0.6-0.3,1.4-0.4,2.2-0.4h17.1c0.1,0,0.1,0,0.2,0c1.3,0.2,2.5,0.8,3.3,1.8c0.7,0.9,1,1.9,0.8,3
					c-0.1,0.6,0,5.8,0,9.2c0,1.8,0,3.6,0,4.8c0,0.8-0.7,1.5-1.5,1.5s-1.5-0.7-1.5-1.5c0-1.2,0-2.9,0-4.7c0-5.5,0-9,0-9.6
					c0-0.3-0.1-0.6-0.2-0.8c-0.3-0.3-0.7-0.6-1.2-0.7h-17c-0.4,0-0.8,0.1-1.1,0.2C4.7,4.8,4.5,5,4.5,5.8v32.2c0,0.3,0,0.5,0,0.7
					c0,0.5,0,1.1,0,1.7c-0.1,0.4,0,0.6,0.2,0.9C5,41.8,5.6,42,6.2,42h1.2c0.8,0,1.5,0.7,1.5,1.5C8.9,44.2,8.2,44.9,7.4,44.9z"/>
			</g>
		</g>
	</g>
</g>
</svg>
