<?xml version="1.0" encoding="utf-8"?>
<!-- Generator: Adobe Illustrator 27.7.0, SVG Export Plug-In . SVG Version: 6.00 Build 0)  -->
<svg version="1.1" id="Layer_2_00000180366958050070917690000000229987744629879743_"
	 xmlns="http://www.w3.org/2000/svg" xmlns:xlink="http://www.w3.org/1999/xlink" x="0px" y="0px" viewBox="0 0 60 36.4"
	 style="enable-background:new 0 0 60 36.4;" xml:space="preserve">
<style type="text/css">
	.st0{fill:#FFFFFF;}
</style>
<g id="Layer_1-2">
	<g>
		<g>
			<g>
				<rect x="13" y="1.5" class="st0" width="45.6" height="23.5"/>
				<path d="M58.5,26.5H13c-0.8,0-1.5-0.7-1.5-1.5V1.5C11.5,0.7,12.1,0,13,0h45.5C59.3,0,60,0.7,60,1.5V25
					C60,25.8,59.4,26.5,58.5,26.5z M14.5,23.5h42.6V3H14.5V23.5z"/>
			</g>
			<g>
				<rect x="7.6" y="6.3" class="st0" width="45.6" height="23.5"/>
				<path d="M53.2,31.3H7.6c-0.8,0-1.5-0.7-1.5-1.5V6.3c0-0.8,0.7-1.5,1.5-1.5h45.6c0.8,0,1.5,0.7,1.5,1.5v23.5
					C54.7,30.7,54,31.3,53.2,31.3z M9.1,28.3h42.6V7.8H9.1V28.3z"/>
			</g>
			<g>
				<rect x="1.5" y="11.4" class="st0" width="45.6" height="23.5"/>
				<path d="M47.1,36.4H1.5c-0.8,0-1.5-0.7-1.5-1.5V11.4c0-0.8,0.7-1.5,1.5-1.5h45.6c0.8,0,1.5,0.7,1.5,1.5v23.5
					C48.6,35.7,47.9,36.4,47.1,36.4z M3,33.4h42.6V12.9H3V33.4z"/>
			</g>
		</g>
	</g>
</g>
</svg>
