<?xml version="1.0" encoding="utf-8"?>
<!-- Generator: Adobe Illustrator 27.7.0, SVG Export Plug-In . SVG Version: 6.00 Build 0)  -->
<svg version="1.1" id="Layer_2_00000057125080158671909030000015286379052842375865_"
	 xmlns="http://www.w3.org/2000/svg" xmlns:xlink="http://www.w3.org/1999/xlink" x="0px" y="0px" viewBox="0 0 51.2 46.7"
	 style="enable-background:new 0 0 51.2 46.7;" xml:space="preserve">
<g id="Layer_1-2">
	<g>
		<g>
			<path d="M47.4,23.5c-0.2,0.4-0.3,0.9-0.7,1.1c-0.3,0.3-0.8,0.5-1.3,0.5c-1.4,0.1-2.7,0-4.1,0c-1.1,0-1.9-0.9-1.9-2s0.8-1.9,1.9-2
				c1.3,0,2.6,0,3.9,0c1,0,1.7,0.5,2,1.5c0,0.1,0,0.1,0.1,0.2C47.4,23.2,47.4,23.4,47.4,23.5L47.4,23.5z"/>
			<path d="M25.4,45.1c-0.1,0-0.2-0.1-0.3-0.1c-0.8-0.3-1.3-1-1.4-1.8c0-1.4,0-2.7,0-4.1c0-1.1,0.9-1.9,2-1.9s1.9,0.8,2,1.9
				c0,1.3,0,2.6,0,3.9c0,1-0.5,1.7-1.5,2c-0.1,0-0.1,0.1-0.2,0.1L25.4,45.1L25.4,45.1z"/>
			<path d="M25.9,33.2c-5.3,0.1-10-4-10.1-9.7c-0.1-5.5,4.1-9.9,9.6-10.1c5.4-0.2,10,4.1,10.2,9.6C35.8,28.4,31.4,32.9,25.9,33.2z
				 M25.7,29.2c3.3,0,5.9-2.7,5.9-5.9c0-3.3-2.7-5.9-5.9-5.9c-3.3,0-5.9,2.7-5.9,5.9C19.7,26.6,22.4,29.2,25.7,29.2z"/>
			<path d="M9.7,9.5c0.1-1,0.4-1.7,1.1-2s1.5-0.3,2.1,0.2c1.1,1,2.1,2,3.1,3.1c0.7,0.7,0.6,1.9-0.1,2.6c-0.7,0.7-1.9,0.8-2.6,0.1
				c-1.1-1-2.1-2-3.1-3.1C9.9,10.2,9.8,9.8,9.7,9.5L9.7,9.5z"/>
			<path d="M39.4,7.3c1,0.1,1.6,0.4,2,1.1c0.3,0.7,0.3,1.5-0.2,2.1c-1,1.1-2,2.1-3.1,3.1c-0.7,0.7-1.9,0.6-2.6-0.2
				c-0.7-0.7-0.8-1.9-0.1-2.6c1-1.1,2-2.1,3.1-3.1C38.7,7.5,39.2,7.4,39.4,7.3L39.4,7.3z"/>
			<path d="M41.6,37c0,1.1-0.4,1.7-1.1,2s-1.5,0.3-2.1-0.2c-1-1-2.1-2-3-3c-0.7-0.8-0.6-1.9,0.1-2.6c0.7-0.7,1.9-0.8,2.7-0.1
				c1,1,2,2,3,3C41.4,36.3,41.5,36.8,41.6,37L41.6,37z"/>
			<path d="M11.9,39.3c-1,0-1.7-0.4-2-1.1c-0.3-0.7-0.3-1.5,0.2-2.1c1-1.1,2-2.1,3.1-3.1c0.7-0.7,1.9-0.6,2.6,0.1s0.8,1.9,0.2,2.6
				c-1,1.1-2,2.1-3.1,3.1C12.6,39.1,12.1,39.2,11.9,39.3z"/>
			<path d="M23.7,5.5c0-0.7,0-1.3,0-2c0-1.1,0.9-2,2-2s1.9,0.9,2,2c0,1.3,0,2.7,0,4c0,1.1-0.9,1.9-2,1.9s-1.9-0.8-2-1.9
				C23.7,6.8,23.7,6.1,23.7,5.5L23.7,5.5z"/>
			<path d="M7.8,25.3c-0.7,0-1.3,0-2,0c-1.2,0-2-0.9-2-2s0.9-1.9,2-2c1.3,0,2.6,0,3.9,0c1.1,0,2,0.9,2,2s-0.9,2-2,2
				C9.1,25.3,8.5,25.3,7.8,25.3L7.8,25.3z"/>
		</g>
	</g>
</g>
</svg>
