<?xml version="1.0" encoding="utf-8"?>
<!-- Generator: Adobe Illustrator 27.7.0, SVG Export Plug-In . SVG Version: 6.00 Build 0)  -->
<svg version="1.1" id="Layer_1" xmlns="http://www.w3.org/2000/svg" xmlns:xlink="http://www.w3.org/1999/xlink" x="0px" y="0px"
	 viewBox="0 0 80 80" style="enable-background:new 0 0 80 80;" xml:space="preserve">
<g>
	<path d="M54.2,39.4c-0.6,0-1.1,0.1-1.5,0.3c-1.4-2.1-3.3-2.1-4.5-1.7c-0.3-0.7-0.9-1.5-1.8-2c-0.8-0.4-1.7-0.6-2.7-0.5
		c0-1.9,0-3.7,0-4.1c0-1.2-0.5-2.3-1.2-3.1c-0.7-0.7-1.7-1.1-2.8-1.1c-2.1,0-3.8,1.7-3.8,3.8v17.6c-0.8-1.2-1.7-2-2.7-2.7
		c-1.1-0.8-2.4-1.1-3.7-0.8c-1.3,0.2-2.2,1.2-2.3,2.6c-0.1,1.2,0.3,2.2,0.6,3c0.1,0.2,0.1,0.4,0.2,0.6c0.6,1.7,1.2,3.4,1.9,5.2
		c0.6,1.7,1.3,3.5,1.9,5.2c0.2,0.5,2.6,3.9,4.5,3.9c0.1,0,0.2,0,0.3,0c0.8-0.2,1.3-0.9,1.2-1.8c-0.1-0.6-0.6-1.1-1.2-1.2
		c-0.5-0.4-1.7-1.6-2-2c-0.6-1.7-1.2-3.4-1.9-5.1c-0.6-1.7-1.3-3.4-1.9-5.1c-0.1-0.2-0.2-0.4-0.2-0.6c-0.2-0.6-0.4-1-0.4-1.6
		c0.4-0.1,0.9,0.1,1.3,0.4c1,0.7,1.8,1.6,2.6,3l0.1,0.2c0.4,0.6,0.9,1.5,2,1.9c0.2,0.1,0.4,0.1,0.6,0.1c0,0,0,0,0.1,0
		c0.4,0,0.8-0.2,1.1-0.5c0.6-0.7,0.9-1.5,0.9-2.5V31.2c0-0.4,0.4-0.8,0.8-0.8c0.2,0,0.4,0,0.7,0.2c0.2,0.2,0.3,0.5,0.3,0.9
		c0,0.5,0,4,0,6.6c0,1.3,0,2.4,0,2.6c0,0.8,0,1.5,0,2.3c0,1,0,2,0,3l0,0.7c0,0.9,0,1.7,0,2.6c-0.1,0.8,0.6,1.5,1.4,1.6
		c0.8,0.1,1.5-0.6,1.6-1.4c0.1-1,0.1-1.9,0.1-2.8l0-0.7c0-1,0-2.1,0-3.1c0-0.8,0-1.5,0-2.3c0-0.2,0-1.1,0-2.2c0.5-0.1,1-0.1,1.3,0.1
		c0.5,0.3,0.7,1,0.8,1.4c0,0.1,0.1,0.2,0.1,0.3c-0.2,0.8-0.4,1.8-0.4,3.2v4.6c0,0.3,0,0.7,0,1l0,0.4c0,0.8,0.6,1.5,1.4,1.6
		c0,0,0,0,0.1,0c0.8,0,1.5-0.6,1.5-1.4l0-0.4c0-0.4,0-0.8,0-1.1l0-4.6c0-1.7,0.2-2.4,0.3-2.6c0.9-0.3,1.2-0.1,1.7,1
		c-0.2,0.5-0.3,0.9-0.3,1.2c-0.1,1.8-0.1,3.8,0,5.9c0,0.8,0.7,1.5,1.6,1.4c0.8,0,1.5-0.7,1.4-1.6c-0.1-2-0.1-3.9,0-5.6
		c0-0.4,0.3-0.9,1-0.9c0.4,0,0.8,0.4,0.8,0.8v19c0,0.8,0.7,1.5,1.5,1.5s1.5-0.7,1.5-1.5v-19C57.9,41.1,56.2,39.4,54.2,39.4z"/>
	<path d="M27.9,55.1c-0.4,0-0.8,0-1.1,0c-0.6,0-1.2-0.3-1.5-0.6c-0.2-0.3-0.3-0.5-0.2-0.9c0.1-0.6,0.1-1.2,0-1.8c0-0.2,0-0.4,0-0.6
		c0-7,0-20.3,0-27.4h20.4c0,1.2,0,2.7,0,4.4c0,2,0,3.9,0,5.1c0,0.8,0.7,1.5,1.5,1.5s1.5-0.7,1.5-1.5c0-1.3,0-3.2,0-5.2
		c0-3.5-0.1-8.2,0-8.8c0.1-1.1-0.1-2.1-0.8-3c-0.8-1-1.9-1.6-3.3-1.8c-0.4,0-0.8-0.1-1.3-0.1h-16c-0.6,0-1.4,0-2.3,0.4
		C23,15.6,22.1,17,22.1,19v0.3c0,2.8,0,22.8,0,31.9c0,0.2,0,0.5,0,0.7c0,0.5,0,0.9,0,1.3c-0.2,1.2,0.2,2.4,0.9,3.3
		c0.9,1,2.2,1.6,3.7,1.7c0.4,0,0.8,0,1.2,0c0.8,0,1.5-0.7,1.5-1.5C29.5,55.7,28.8,55.1,27.9,55.1z M25.1,19c0-0.7,0.2-1,0.9-1.3
		c0.3-0.1,0.6-0.2,1.1-0.2h16c0.3,0,0.7,0,1,0c0.5,0.1,1,0.3,1.2,0.6c0.2,0.2,0.3,0.5,0.2,0.7c0,0.3-0.1,0.8-0.1,1.8H25.1
		c0-0.6,0-1.1,0-1.4V19z"/>
</g>
</svg>
