<?xml version="1.0" encoding="utf-8"?>
<!-- Generator: Adobe Illustrator 27.7.0, SVG Export Plug-In . SVG Version: 6.00 Build 0)  -->
<svg version="1.1" id="Layer_1" xmlns="http://www.w3.org/2000/svg" xmlns:xlink="http://www.w3.org/1999/xlink" x="0px" y="0px"
	 viewBox="0 0 80 80" style="enable-background:new 0 0 80 80;" xml:space="preserve">
<g>
	<path d="M61.8,40.3c-0.2,0.4-0.3,0.9-0.7,1.1c-0.3,0.3-0.8,0.5-1.3,0.5c-1.4,0.1-2.7,0-4.1,0c-1.1,0-1.9-0.9-1.9-2s0.8-1.9,1.9-2
		c1.3,0,2.6,0,3.9,0c1,0,1.7,0.5,2,1.5c0,0.1,0.1,0.1,0.1,0.2C61.8,39.9,61.8,40.1,61.8,40.3L61.8,40.3z"/>
	<path d="M39.7,61.8c-0.1,0-0.2-0.1-0.3-0.1c-0.8-0.3-1.3-1-1.3-1.8c0-1.4,0-2.7,0-4.1c0-1.1,0.9-1.9,2-1.9c1.1,0,1.9,0.8,2,1.9
		c0,1.3,0,2.6,0,3.9c0,1-0.5,1.7-1.5,2c-0.1,0-0.1,0.1-0.2,0.1L39.7,61.8L39.7,61.8z"/>
	<path d="M40.2,49.9c-5.3,0.1-10-4-10.1-9.7c-0.1-5.5,4.1-9.9,9.6-10.1c5.4-0.2,10,4.1,10.2,9.6C50.1,45.1,45.8,49.6,40.2,49.9z
		 M40,45.9c3.3,0,5.9-2.7,5.9-5.9c0-3.3-2.7-5.9-5.9-5.9c-3.3,0-5.9,2.7-5.9,5.9C34.1,43.3,36.7,45.9,40,45.9z"/>
	<path d="M24,26.2c0.1-1,0.4-1.7,1.2-2c0.7-0.3,1.5-0.3,2.1,0.2c1.1,1,2.1,2,3.1,3.1c0.7,0.7,0.6,1.9-0.1,2.6
		c-0.7,0.7-1.9,0.8-2.6,0.1c-1.1-1-2.1-2-3.1-3.1C24.2,26.9,24.1,26.5,24,26.2L24,26.2z"/>
	<path d="M53.7,24c1,0,1.6,0.4,2,1.1s0.3,1.5-0.2,2.1c-1,1.1-2,2.1-3.1,3.1c-0.7,0.7-1.9,0.6-2.6-0.2c-0.7-0.7-0.8-1.9-0.1-2.6
		c1-1.1,2-2.1,3.1-3.1C53,24.2,53.5,24.1,53.7,24L53.7,24z"/>
	<path d="M56,53.7c0,1.1-0.4,1.7-1.1,2c-0.7,0.3-1.5,0.3-2.1-0.2c-1.1-1-2.1-2-3.1-3.1c-0.7-0.8-0.6-1.9,0.1-2.7s1.9-0.8,2.7-0.1
		c1,1,2,2,3,3C55.8,53,55.9,53.5,56,53.7L56,53.7z"/>
	<path d="M26.2,56c-1,0-1.7-0.4-2-1.1s-0.3-1.5,0.2-2.1c1-1.1,2-2.1,3.1-3.1c0.7-0.7,1.9-0.6,2.6,0.1c0.7,0.7,0.8,1.9,0.2,2.6
		c-1,1.1-2,2.1-3.1,3.1C26.9,55.8,26.4,55.9,26.2,56z"/>
	<path d="M38,22.2c0-0.7,0-1.3,0-2c0-1.1,0.9-2,2-2c1.1,0,1.9,0.8,1.9,2c0,1.3,0,2.7,0,4c0,1.1-0.9,1.9-2,1.9s-1.9-0.8-2-1.9
		C38,23.5,38,22.8,38,22.2z"/>
	<path d="M22.2,42c-0.7,0-1.3,0-1.9,0c-1.2,0-2-0.9-2-2c0-1.1,0.9-1.9,2-2c1.3,0,2.6,0,3.9,0c1.1,0,2,0.9,2,2c0,1.1-0.8,2-2,2
		C23.5,42,22.8,42,22.2,42L22.2,42z"/>
</g>
</svg>
