<?xml version="1.0" encoding="utf-8"?>
<!-- Generator: Adobe Illustrator 27.7.0, SVG Export Plug-In . SVG Version: 6.00 Build 0)  -->
<svg version="1.1" id="Layer_1" xmlns="http://www.w3.org/2000/svg" xmlns:xlink="http://www.w3.org/1999/xlink" x="0px" y="0px"
	 viewBox="0 0 80 80" style="enable-background:new 0 0 80 80;" xml:space="preserve">
<style type="text/css">
	.st0{fill:#FFFFFF;}
</style>
<g>
	<g>
		<rect x="22.9" y="23.3" class="st0" width="45.6" height="23.5"/>
		<path d="M68.5,48.3H22.9c-0.8,0-1.5-0.7-1.5-1.5V23.3c0-0.8,0.7-1.5,1.5-1.5h45.6c0.8,0,1.5,0.7,1.5,1.5v23.5
			C70,47.6,69.3,48.3,68.5,48.3z M24.4,45.3H67V24.8H24.4V45.3z"/>
	</g>
	<g>
		<rect x="17.6" y="28.2" class="st0" width="45.6" height="23.5"/>
		<path d="M63.1,53.2H17.6c-0.8,0-1.5-0.7-1.5-1.5V28.2c0-0.8,0.7-1.5,1.5-1.5h45.6c0.8,0,1.5,0.7,1.5,1.5v23.5
			C64.6,52.5,64,53.2,63.1,53.2z M19.1,50.2h42.6V29.7H19.1V50.2z"/>
	</g>
	<g>
		<rect x="11.5" y="33.2" class="st0" width="45.6" height="23.5"/>
		<path d="M57.1,58.2H11.5c-0.8,0-1.5-0.7-1.5-1.5V33.2c0-0.8,0.7-1.5,1.5-1.5h45.6c0.8,0,1.5,0.7,1.5,1.5v23.5
			C58.6,57.5,57.9,58.2,57.1,58.2z M13,55.2h42.6V34.7H13V55.2z"/>
	</g>
</g>
</svg>
