<?xml version="1.0" encoding="utf-8"?>
<!-- Generator: Adobe Illustrator 27.7.0, SVG Export Plug-In . SVG Version: 6.00 Build 0)  -->
<svg version="1.1" id="Layer_2_00000061434376657794043310000001303103408268911011_"
	 xmlns="http://www.w3.org/2000/svg" xmlns:xlink="http://www.w3.org/1999/xlink" x="0px" y="0px" viewBox="0 0 84.7 85.4"
	 style="enable-background:new 0 0 84.7 85.4;" xml:space="preserve">
<style type="text/css">
	.st0{fill:#E6D2DB;}
	.st1{fill:#8790D6;}
	.st2{fill:#FFFFFF;}
</style>
<g id="Layer_1-2">
	<g>
		<g>
			<g>
				<g>
					<path class="st0" d="M8.3,2h68c3.5,0,6.3,2.8,6.3,6.3v68c0,3.5-2.8,6.3-6.3,6.3h-68c-3.5,0-6.3-2.8-6.3-6.3v-68
						C2,4.9,4.9,2,8.3,2z"/>
					<path class="st1" d="M69.8,84.7H14.9C6.7,84.7,0,78,0,69.8V14.9C0,6.7,6.7,0,14.9,0h54.9C78,0,84.7,6.7,84.7,14.9v54.9
						C84.7,78,78,84.7,69.8,84.7z M14.9,4.1C8.9,4.1,4.1,9,4.1,14.9v54.9c0,6,4.8,10.8,10.8,10.8h54.9c6,0,10.8-4.8,10.8-10.8V14.9
						c0-6-4.8-10.8-10.8-10.8C69.8,4.1,14.9,4.1,14.9,4.1z"/>
				</g>
				<g>
					<circle class="st2" cx="42.3" cy="42.3" r="22.9"/>
					<path class="st1" d="M42.3,67.3c-13.8,0-25-11.2-25-25s11.2-25,25-25s25,11.2,25,25S56.1,67.3,42.3,67.3z M42.3,21.5
						c-11.5,0-20.9,9.4-20.9,20.9s9.4,20.9,20.9,20.9s20.9-9.4,20.9-20.9S53.8,21.5,42.3,21.5z"/>
				</g>
				<path d="M50.7,42.3c0,4.6-3.8,8.4-8.4,8.4s-8.4-3.8-8.4-8.4s3.8-8.4,8.4-8.4v8.4C42.3,42.3,50.7,42.3,50.7,42.3z"/>
			</g>
		</g>
	</g>
</g>
</svg>
