<?xml version="1.0" encoding="utf-8"?>
<!-- Generator: Adobe Illustrator 27.7.0, SVG Export Plug-In . SVG Version: 6.00 Build 0)  -->
<svg version="1.1" id="Layer_2_00000127024148381255509380000007451013849940859059_"
	 xmlns="http://www.w3.org/2000/svg" xmlns:xlink="http://www.w3.org/1999/xlink" x="0px" y="0px" viewBox="0 0 92.2 101"
	 style="enable-background:new 0 0 92.2 101;" xml:space="preserve">
<style type="text/css">
	.st0{fill:#E6D2DB;}
	.st1{fill:#8790D6;}
	.st2{fill:#FFFFFF;}
</style>
<g id="Layer_1-2">
	<g>
		<g>
			<g>
				<path class="st0" d="M32.7,40.9L42.8,3c0.4-1.5,2.5-1.5,2.9,0l10,37.9c0.2,0.9-0.5,1.9-1.4,1.9H34.2
					C33.2,42.8,32.5,41.9,32.7,40.9z"/>
				<path class="st1" d="M54.2,44.7h-20c-1.1,0-2-0.5-2.7-1.3s-0.9-1.9-0.6-2.9l10-37.9C41.3,1,42.6,0,44.2,0s2.9,1,3.3,2.5l10,37.9
					c0.3,1,0.1,2.1-0.6,2.9S55.3,44.7,54.2,44.7z M34.7,40.9h18.9L44.2,5.1L34.7,40.9L34.7,40.9z"/>
			</g>
			<rect x="42.3" y="42.8" class="st1" width="3.8" height="8.5"/>
			<g>
				<path class="st0" d="M67.3,41.3l10-37.9c0.4-1.5,2.5-1.5,2.9,0l10,37.9c0.2,0.9-0.5,1.9-1.4,1.9h-20
					C67.8,43.1,67.1,42.2,67.3,41.3L67.3,41.3z"/>
				<path class="st1" d="M88.8,45.1h-20c-1.1,0-2-0.5-2.7-1.3s-0.9-1.9-0.6-2.9L75.5,3c0.4-1.5,1.7-2.5,3.3-2.5s2.9,1,3.3,2.5
					l10,37.9c0.3,1,0.1,2.1-0.6,2.9C90.9,44.6,89.9,45.1,88.8,45.1L88.8,45.1z M69.2,41.8L69.2,41.8L69.2,41.8z M69.3,41.2h18.9
					L78.8,5.5L69.3,41.2z"/>
			</g>
			<rect x="76.9" y="43.2" class="st1" width="3.8" height="8.5"/>
			<g>
				<path class="st0" d="M2,41.3L12,3.4c0.4-1.5,2.5-1.5,2.9,0l10,37.9c0.2,0.9-0.5,1.9-1.4,1.9H3.4C2.4,43.1,1.7,42.2,2,41.3z"/>
				<path class="st1" d="M23.5,45.1H3.4c-1.1,0-2-0.5-2.7-1.3s-0.9-1.9-0.6-2.9L10.1,3c0.4-1.5,1.7-2.5,3.3-2.5s2.9,1,3.3,2.5
					l10,37.9c0.3,1,0.1,2.1-0.6,2.9S24.5,45.1,23.5,45.1L23.5,45.1z M4,41.2h18.9L13.4,5.5L4,41.2z"/>
			</g>
			<rect x="11.5" y="43.2" class="st1" width="3.8" height="8.5"/>
			<g>
				<path class="st2" d="M43,85.6l18-68.2c0.3-1.2,2.1-1.2,2.4,0l18.1,68.2c0.2,0.8-0.4,1.6-1.2,1.6H44.2
					C43.4,87.1,42.8,86.3,43,85.6L43,85.6z"/>
				<path d="M80.3,89H44.2c-1,0-1.9-0.4-2.5-1.2c-0.6-0.8-0.8-1.8-0.5-2.7l18.1-68.2c0.4-1.4,1.6-2.4,3-2.4l0,0c1.5,0,2.7,0.9,3,2.4
					l18.1,68.2c0.2,0.9,0.1,1.9-0.6,2.7C82.2,88.6,81.3,89,80.3,89L80.3,89z M44.8,86L44.8,86L44.8,86L44.8,86z M45,85.2h34.3
					L62.2,20.3L45,85.2L45,85.2z"/>
			</g>
			<rect x="60.3" y="87.1" width="3.8" height="13.9"/>
		</g>
	</g>
</g>
</svg>
